<svg width="687" height="98" viewBox="0 0 687 98" fill="none" xmlns="http://www.w3.org/2000/svg">
<path d="M51.6398 24.3978V36.5483H45.612C42.258 36.5483 39.3944 37.7349 37.0212 40.1081C34.6481 42.4812 33.4457 45.3448 33.414 48.6989C33.414 51.9264 32.797 55.0273 31.563 58.0017C30.3289 60.976 28.5728 63.6023 26.2946 65.8805C24.0163 68.1588 21.39 69.9149 18.4157 71.1489C15.4413 72.383 12.3404 73 9.11291 73H3.03764V60.8494H9.11291C12.467 60.8494 15.3306 59.6629 17.7037 57.2897C20.0769 54.9166 21.2635 52.053 21.2635 48.6989C21.2951 45.4714 21.928 42.3705 23.162 39.3961C24.396 36.4218 26.1522 33.7955 28.4304 31.5173C30.7086 29.239 33.3349 27.4829 36.3093 26.2488C39.2836 25.0148 42.3687 24.3978 45.5646 24.3978H51.6398ZM69.3436 73H57.193V12.2472H69.3436V27.6727C70.2612 27.1348 71.2105 26.6602 72.1914 26.2488C75.1657 25.0148 78.2666 24.3978 81.4941 24.3978C84.7216 24.3978 87.8225 25.0148 90.7969 26.2488C93.7713 27.4829 96.3975 29.239 98.6758 31.5173C100.954 33.7955 102.71 36.4218 103.944 39.3961C105.178 42.3705 105.795 45.4714 105.795 48.6989V73H93.6447V48.6989C93.6447 45.3448 92.4581 42.4812 90.085 40.1081C87.7118 37.7349 84.8482 36.5483 81.4941 36.5483C78.1401 36.5483 75.2765 37.7349 72.9033 40.1081C70.5302 42.4812 69.3436 45.3448 69.3436 48.6989V73ZM134.748 73C131.52 73 128.419 72.383 125.445 71.1489C122.471 69.9149 119.844 68.1588 117.566 65.8805C115.288 63.6023 113.532 60.976 112.298 58.0017C111.064 55.0273 110.447 51.9264 110.447 48.6989C110.447 45.4714 111.064 42.3705 112.298 39.3961C113.532 36.4218 115.288 33.7955 117.566 31.5173C119.844 29.239 122.471 27.4829 125.445 26.2488C128.419 25.0148 131.52 24.3978 134.748 24.3978C137.975 24.3978 141.076 25.0148 144.05 26.2488C147.025 27.4829 149.651 29.239 151.929 31.5173C154.208 33.7955 155.964 36.4218 157.198 39.3961C158.432 42.3705 159.049 45.4714 159.049 48.6989C159.049 51.9264 158.432 55.0273 157.198 58.0017C155.964 60.976 154.208 63.6023 151.929 65.8805C149.651 68.1588 147.025 69.9149 144.05 71.1489C141.076 72.383 137.975 73 134.748 73ZM134.748 60.8494C138.102 60.8494 140.965 59.6629 143.339 57.2897C145.712 54.9166 146.898 52.053 146.898 48.6989C146.898 45.3448 145.712 42.4812 143.339 40.1081C140.965 37.7349 138.102 36.5483 134.748 36.5483C131.394 36.5483 128.53 37.7349 126.157 40.1081C123.784 42.4812 122.597 45.3448 122.597 48.6989C122.597 52.053 123.784 54.9166 126.157 57.2897C128.53 59.6629 131.394 60.8494 134.748 60.8494ZM188.049 60.8494C191.403 60.8494 194.266 59.6629 196.64 57.2897C199.013 54.9166 200.199 52.053 200.199 48.6989C200.199 45.3448 199.013 42.4812 196.64 40.1081C194.266 37.7349 191.403 36.5483 188.049 36.5483C184.695 36.5483 181.831 37.7349 179.458 40.1081C177.085 42.4812 175.898 45.3448 175.898 48.6989C175.898 52.053 177.085 54.9166 179.458 57.2897C181.831 59.6629 184.695 60.8494 188.049 60.8494ZM163.748 48.6989C163.748 45.4714 164.365 42.3705 165.599 39.3961C166.833 36.4218 168.589 33.7955 170.867 31.5173C173.145 29.239 175.772 27.4829 178.746 26.2488C181.72 25.0148 184.821 24.3978 188.049 24.3978C191.276 24.3978 194.377 25.0148 197.352 26.2488C200.326 27.4829 202.952 29.239 205.23 31.5173C207.509 33.7955 209.265 36.4218 210.499 39.3961C211.733 42.3705 212.35 45.4714 212.35 48.6989C212.35 51.9264 211.733 55.0273 210.499 58.0017C209.265 60.976 207.509 63.6023 205.23 65.8805C202.952 68.1588 200.326 69.9149 197.352 71.1489C194.377 72.383 191.276 73 188.049 73C184.821 73 181.72 72.383 178.746 71.1489C177.765 70.7376 176.816 70.263 175.898 69.725V85.1506H163.748V48.6989ZM241.35 60.8494C244.704 60.8494 247.568 59.6629 249.941 57.2897C252.314 54.9166 253.5 52.053 253.5 48.6989C253.5 45.3448 252.314 42.4812 249.941 40.1081C247.568 37.7349 244.704 36.5483 241.35 36.5483C237.996 36.5483 235.132 37.7349 232.759 40.1081C230.386 42.4812 229.199 45.3448 229.199 48.6989C229.199 52.053 230.386 54.9166 232.759 57.2897C235.132 59.6629 237.996 60.8494 241.35 60.8494ZM217.049 48.6989C217.049 45.4714 217.666 42.3705 218.9 39.3961C220.134 36.4218 221.89 33.7955 224.168 31.5173C226.446 29.239 229.073 27.4829 232.047 26.2488C235.021 25.0148 238.122 24.3978 241.35 24.3978C244.577 24.3978 247.678 25.0148 250.653 26.2488C253.627 27.4829 256.253 29.239 258.531 31.5173C260.81 33.7955 262.566 36.4218 263.8 39.3961C265.034 42.3705 265.651 45.4714 265.651 48.6989C265.651 51.9264 265.034 55.0273 263.8 58.0017C262.566 60.976 260.81 63.6023 258.531 65.8805C256.253 68.1588 253.627 69.9149 250.653 71.1489C247.678 72.383 244.577 73 241.35 73C238.122 73 235.021 72.383 232.047 71.1489C231.066 70.7376 230.117 70.263 229.199 69.725V85.1506H217.049V48.6989ZM283.07 73H270.919V24.3978H283.07V73ZM276.995 18.3225C274.906 18.3225 273.118 17.5789 271.631 16.0917C270.144 14.6046 269.401 12.8168 269.401 10.7284C269.401 8.64004 270.144 6.85226 271.631 5.36509C273.118 3.87791 274.906 3.13432 276.995 3.13432C279.083 3.13432 280.871 3.87791 282.358 5.36509C283.845 6.85226 284.589 8.64004 284.589 10.7284C284.589 12.8168 283.845 14.6046 282.358 16.0917C280.871 17.5789 279.083 18.3225 276.995 18.3225ZM303.337 48.6989V73H291.186V48.6989C291.186 45.4714 291.803 42.3705 293.037 39.3961C294.271 36.4218 296.027 33.7955 298.306 31.5173C300.584 29.239 303.21 27.4829 306.184 26.2488C309.159 25.0148 312.26 24.3978 315.487 24.3978C318.715 24.3978 321.816 25.0148 324.79 26.2488C327.764 27.4829 330.391 29.239 332.669 31.5173C334.947 33.7955 336.703 36.4218 337.937 39.3961C339.171 42.3705 339.788 45.4714 339.788 48.6989V73H327.638V48.6989C327.638 45.3448 326.451 42.4812 324.078 40.1081C321.705 37.7349 318.841 36.5483 315.487 36.5483C312.133 36.5483 309.27 37.7349 306.896 40.1081C304.523 42.4812 303.337 45.3448 303.337 48.6989ZM368.741 60.8494C372.095 60.8494 374.958 59.6629 377.332 57.2897C379.705 54.9166 380.891 52.053 380.891 48.6989C380.891 45.3448 379.705 42.4812 377.332 40.1081C374.958 37.7349 372.095 36.5483 368.741 36.5483C365.387 36.5483 362.523 37.7349 360.15 40.1081C357.777 42.4812 356.59 45.3448 356.59 48.6989C356.59 52.053 357.777 54.9166 360.15 57.2897C362.523 59.6629 365.387 60.8494 368.741 60.8494ZM380.891 69.725C379.974 70.263 379.024 70.7376 378.044 71.1489C375.069 72.383 371.968 73 368.741 73C365.513 73 362.412 72.383 359.438 71.1489C356.464 69.9149 353.837 68.1588 351.559 65.8805C349.281 63.6023 347.525 60.976 346.291 58.0017C345.057 55.0273 344.44 51.9264 344.44 48.6989C344.44 45.4714 345.057 42.3705 346.291 39.3961C347.525 36.4218 349.281 33.7955 351.559 31.5173C353.837 29.239 356.464 27.4829 359.438 26.2488C362.412 25.0148 365.513 24.3978 368.741 24.3978C371.968 24.3978 375.069 25.0148 378.044 26.2488C381.018 27.4829 383.644 29.239 385.922 31.5173C388.201 33.7955 389.957 36.4218 391.191 39.3961C392.425 42.3705 393.042 45.4714 393.042 48.6989V73C393.042 76.2275 392.425 79.3284 391.191 82.3028C389.957 85.2771 388.201 87.9034 385.922 90.1816C383.644 92.4599 381.018 94.216 378.044 95.45C375.069 96.6841 371.968 97.3011 368.741 97.3011V85.1506C372.095 85.1506 374.958 83.964 377.332 81.5908C379.705 79.2177 380.891 76.3541 380.891 73V69.725Z" fill="#282921"/>
<path d="M441.976 60.8494C445.33 60.8494 448.194 59.6629 450.567 57.2897C452.94 54.9166 454.127 52.053 454.127 48.6989C454.127 45.3448 452.94 42.4812 450.567 40.1081C448.194 37.7349 445.33 36.5483 441.976 36.5483C438.622 36.5483 435.759 37.7349 433.386 40.1081C431.012 42.4812 429.826 45.3448 429.826 48.6989C429.826 52.053 431.012 54.9166 433.386 57.2897C435.759 59.6629 438.622 60.8494 441.976 60.8494ZM429.826 27.6727C430.744 27.1348 431.693 26.6602 432.674 26.2488C435.648 25.0148 438.749 24.3978 441.976 24.3978C445.204 24.3978 448.305 25.0148 451.279 26.2488C454.254 27.4829 456.88 29.239 459.158 31.5173C461.436 33.7955 463.192 36.4218 464.426 39.3961C465.661 42.3705 466.278 45.4714 466.278 48.6989C466.278 51.9264 465.661 55.0273 464.426 58.0017C463.192 60.976 461.436 63.6023 459.158 65.8805C456.88 68.1588 454.254 69.9149 451.279 71.1489C448.305 72.383 445.204 73 441.976 73C438.749 73 435.648 72.383 432.674 71.1489C429.699 69.9149 427.073 68.1588 424.795 65.8805C422.517 63.6023 420.76 60.976 419.526 58.0017C418.292 55.0273 417.675 51.9264 417.675 48.6989V12.2472H429.826V27.6727ZM470.976 48.6989V24.3978H483.127V48.6989C483.127 52.053 484.314 54.9166 486.687 57.2897C489.06 59.6629 491.923 60.8494 495.277 60.8494C498.632 60.8494 501.495 59.6629 503.868 57.2897C506.241 54.9166 507.428 52.053 507.428 48.6989V24.3978H519.579V48.6989C519.579 51.9264 518.962 55.0273 517.728 58.0017C516.493 60.976 514.737 63.6023 512.459 65.8805C510.181 68.1588 507.555 69.9149 504.58 71.1489C501.606 72.383 498.505 73 495.277 73C492.05 73 488.949 72.383 485.975 71.1489C483 69.9149 480.374 68.1588 478.096 65.8805C475.818 63.6023 474.061 60.976 472.827 58.0017C471.593 55.0273 470.976 51.9264 470.976 48.6989ZM548.531 60.8494C551.885 60.8494 554.749 59.6629 557.122 57.2897C559.495 54.9166 560.682 52.053 560.682 48.6989C560.682 45.3448 559.495 42.4812 557.122 40.1081C554.749 37.7349 551.885 36.5483 548.531 36.5483C545.177 36.5483 542.313 37.7349 539.94 40.1081C537.567 42.4812 536.381 45.3448 536.381 48.6989C536.381 52.053 537.567 54.9166 539.94 57.2897C542.313 59.6629 545.177 60.8494 548.531 60.8494ZM572.832 48.6989C572.832 51.9264 572.215 55.0273 570.981 58.0017C569.747 60.976 567.991 63.6023 565.713 65.8805C563.435 68.1588 560.808 69.9149 557.834 71.1489C554.86 72.383 551.759 73 548.531 73C545.304 73 542.203 72.383 539.228 71.1489C536.254 69.9149 533.628 68.1588 531.349 65.8805C529.071 63.6023 527.315 60.976 526.081 58.0017C524.847 55.0273 524.23 51.9264 524.23 48.6989C524.23 45.4714 524.847 42.3705 526.081 39.3961C527.315 36.4218 529.071 33.7955 531.349 31.5173C533.628 29.239 536.254 27.4829 539.228 26.2488C542.203 25.0148 545.304 24.3978 548.531 24.3978C551.759 24.3978 554.86 25.0148 557.834 26.2488C558.815 26.6602 559.764 27.1348 560.682 27.6727V12.2472H572.832V48.6989ZM601.785 60.8494C605.139 60.8494 608.002 59.6629 610.376 57.2897C612.749 54.9166 613.935 52.053 613.935 48.6989C613.935 45.3448 612.749 42.4812 610.376 40.1081C608.002 37.7349 605.139 36.5483 601.785 36.5483C598.431 36.5483 595.567 37.7349 593.194 40.1081C590.821 42.4812 589.634 45.3448 589.634 48.6989C589.634 52.053 590.821 54.9166 593.194 57.2897C595.567 59.6629 598.431 60.8494 601.785 60.8494ZM626.086 48.6989C626.086 51.9264 625.469 55.0273 624.235 58.0017C623.001 60.976 621.245 63.6023 618.966 65.8805C616.688 68.1588 614.062 69.9149 611.087 71.1489C608.113 72.383 605.012 73 601.785 73C598.557 73 595.456 72.383 592.482 71.1489C589.508 69.9149 586.881 68.1588 584.603 65.8805C582.325 63.6023 580.569 60.976 579.335 58.0017C578.101 55.0273 577.484 51.9264 577.484 48.6989C577.484 45.4714 578.101 42.3705 579.335 39.3961C580.569 36.4218 582.325 33.7955 584.603 31.5173C586.881 29.239 589.508 27.4829 592.482 26.2488C595.456 25.0148 598.557 24.3978 601.785 24.3978C605.012 24.3978 608.113 25.0148 611.087 26.2488C612.068 26.6602 613.018 27.1348 613.935 27.6727V12.2472H626.086V48.6989ZM634.249 48.6989V24.3978H646.4V48.6989C646.4 52.053 647.587 54.9166 649.96 57.2897C652.333 59.6629 655.196 60.8494 658.551 60.8494C661.905 60.8494 664.768 59.6629 667.141 57.2897C669.515 54.9166 670.701 52.053 670.701 48.6989V24.3978H682.852V73C682.852 76.2275 682.235 79.3284 681.001 82.3028C679.767 85.2771 678.01 87.9034 675.732 90.1816C673.454 92.4599 670.828 94.216 667.853 95.45C664.879 96.6841 661.778 97.3011 658.551 97.3011V85.1506C661.905 85.1506 664.768 83.964 667.141 81.5908C669.515 79.2177 670.701 76.3541 670.701 73V69.725C669.783 70.263 668.834 70.7376 667.853 71.1489C664.879 72.383 661.778 73 658.551 73C655.323 73 652.222 72.383 649.248 71.1489C646.273 69.9149 643.647 68.1588 641.369 65.8805C639.091 63.6023 637.335 60.976 636.101 58.0017C634.866 55.0273 634.249 51.9264 634.249 48.6989Z" fill="#2FC6F1"/>
</svg>
