<svg width="51" height="51" viewBox="0 0 51 51" fill="none" xmlns="http://www.w3.org/2000/svg">
<path d="M4.25 25.5H14.875V29.75H4.25V25.5ZM38.6113 29.2188C39.7163 27.54 40.375 25.5425 40.375 23.375C40.375 17.51 35.615 12.75 29.75 12.75C23.885 12.75 19.125 17.51 19.125 23.375C19.125 29.24 23.885 34 29.75 34C31.9175 34 33.915 33.3412 35.615 32.2362L43.7537 40.375L46.75 37.3787L38.6113 29.2188ZM29.75 29.75C26.2437 29.75 23.375 26.8813 23.375 23.375C23.375 19.8688 26.2437 17 29.75 17C33.2563 17 36.125 19.8688 36.125 23.375C36.125 26.8813 33.2563 29.75 29.75 29.75ZM4.25 14.875H14.875V19.125H4.25V14.875ZM4.25 36.125H25.5V40.375H4.25V36.125Z" fill="white"/>
</svg>
