<svg width="41" height="41" viewBox="0 0 41 41" fill="none" xmlns="http://www.w3.org/2000/svg">
<g clip-path="url(#clip0_6_2435)">
<path d="M4.39293 7.32144C3.61622 7.32144 2.87133 7.62998 2.32211 8.1792C1.7729 8.72841 1.46436 9.4733 1.46436 10.25V36.6071C1.46436 37.3839 1.7729 38.1287 2.32211 38.678C2.87133 39.2272 3.61622 39.5357 4.39293 39.5357H36.6072C37.3839 39.5357 38.1288 39.2272 38.678 38.678C39.2272 38.1287 39.5358 37.3839 39.5358 36.6071V10.25C39.5358 9.4733 39.2272 8.72841 38.678 8.1792C38.1288 7.62998 37.3839 7.32144 36.6072 7.32144H30.7501M1.46436 19.0357H39.5358M10.2501 1.46429V13.1786M30.7501 1.46429V13.1786M10.2501 7.32144H24.8929" stroke="white" stroke-width="2.5625" stroke-linecap="round" stroke-linejoin="round"/>
</g>
<defs>
<clipPath id="clip0_6_2435">
<rect width="41" height="41" fill="white"/>
</clipPath>
</defs>
</svg>
