<svg width="80" height="89" viewBox="0 0 80 89" fill="none" xmlns="http://www.w3.org/2000/svg">
<path d="M44.1623 80.4974C44.1623 84.6806 40.7711 88.0718 36.5878 88.0718C32.4046 88.0718 29.0134 84.6806 29.0134 80.4974C29.0134 76.3142 32.4046 72.923 36.5878 72.923C40.7711 72.923 44.1623 76.3142 44.1623 80.4974Z" fill="white"/>
<path d="M74.0722 80.4974C74.0722 84.6806 70.681 88.0718 66.4978 88.0718C62.3145 88.0718 58.9233 84.6806 58.9233 80.4974C58.9233 76.3142 62.3145 72.923 66.4978 72.923C70.681 72.923 74.0722 76.3142 74.0722 80.4974Z" fill="white"/>
<path d="M7.56226 1.14441e-05H25.4727V13.9304H7.56226V1.14441e-05Z" fill="white"/>
<path fill-rule="evenodd" clip-rule="evenodd" d="M61.6025 52.7468C58.8235 55.5259 55.47 56.9154 51.5423 56.9154C47.6145 56.9154 44.2611 55.5259 41.482 52.7468C38.7737 50.0385 37.385 46.7846 37.3161 42.9852H37.3134V12.7365H37.3134V1.14441e-05H23.0846V16.3965V42.6866C23.0846 46.4661 23.8071 50.0974 25.2523 53.5805C26.6974 57.0636 28.7539 60.1392 31.4218 62.8071C34.0897 65.475 37.1652 67.5315 40.6483 68.9766C44.1314 70.4217 47.7627 71.1443 51.5423 71.1443C55.3218 71.1443 58.9532 70.4217 62.4363 68.9766C65.9194 67.5315 68.9949 65.475 71.6628 62.8071C74.3307 60.1392 76.3872 57.0636 77.8323 53.5805C79.2774 50.0974 80 46.4661 80 42.6866C80 38.907 79.2774 35.2757 77.8323 31.7926C76.3872 28.3095 74.3307 25.234 71.6628 22.5661C68.9949 19.8982 65.9194 17.8417 62.4363 16.3965C58.9532 14.9514 55.3218 14.2289 51.5423 14.2289C51.476 14.2289 51.4097 14.2291 51.3434 14.2295V28.4589C51.4096 28.4581 51.4758 28.4577 51.5423 28.4577C55.47 28.4577 58.8235 29.8473 61.6025 32.6263C64.3816 35.4054 65.7711 38.7588 65.7711 42.6866C65.7711 46.6143 64.3816 49.9677 61.6025 52.7468Z" fill="white"/>
</svg>
